Coordinates
version=1
nRows=18
nColumns=22
inDegrees=yes

Units are S.I. units (second, meters, Newtons, ...)
If the header above contains a line with 'inDegrees', this indicates whether rotational values are in degrees (yes) or radians (no).

endheader
time	pelvis_tilt	pelvis_list	pelvis_rotation	pelvis_tx	pelvis_ty	pelvis_tz	hip_flexion_r	hip_adduction_r	hip_rotation_r	knee_angle_r	ankle_angle_r	subtalar_angle_r	hip_flexion_l	hip_adduction_l	hip_rotation_l	knee_angle_l	ankle_angle_l	subtalar_angle_l	lumbar_extension	lumbar_bending	lumbar_rotation
      1.31000000	     -0.26648278	      1.39140086	      2.31317906	     -1.10426409	      1.06897276	     -0.59283014	      7.29352855	     -3.45180724	     -0.31112633	    -28.96648788	     15.94104703	      1.47944612	     -1.85605156	      4.31379083	     -0.13253441	    -12.65050651	     15.46861658	     -4.96230216	     -2.92989869	     -4.69687637	     -6.91786038
      1.32000000	     -0.39420864	      1.59972417	      2.27064769	     -1.10416410	      1.06848616	     -0.59379444	      8.56771231	     -3.67459407	     -0.08595376	    -31.02168869	     15.54127751	      1.61678996	     -1.79964715	      4.59862501	     -0.16192124	    -12.54632897	     15.47353497	     -4.97768636	     -3.15137194	     -4.91958005	     -6.96496583
      1.33000000	     -0.51409228	      1.78848990	      2.22896011	     -1.10397346	      1.06804595	     -0.59472813	      9.86096898	     -3.86796981	      0.12079703	    -33.09983790	     15.05019083	      1.76688534	     -1.76196202	      4.86002712	     -0.19224481	    -12.42928572	     15.47671793	     -4.98434335	     -3.38245862	     -5.11673147	     -7.00647170
      1.34000000	     -0.63372659	      1.95453601	      2.19566455	     -1.10368470	      1.06763888	     -0.59562783	     11.16695889	     -4.02423800	      0.32104514	    -35.16897540	     14.49568740	      1.94213393	     -1.72754636	      5.09399246	     -0.21801205	    -12.31469968	     15.48300682	     -4.98127183	     -3.61285870	     -5.28487970	     -7.05604597
      1.35000000	     -0.75121810	      2.09484185	      2.17460265	     -1.10328071	      1.06726922	     -0.59649365	     12.46907734	     -4.13878691	      0.51458868	    -37.19410978	     13.90419207	      2.14687640	     -1.69920321	      5.29629938	     -0.23738914	    -12.20120280	     15.48867316	     -4.96413589	     -3.84268681	     -5.42127278	     -7.11445459
      1.36000000	     -0.86498101	      2.20595518	      2.16617570	     -1.10273788	      1.06693481	     -0.59731688	     13.75151194	     -4.20470809	      0.70396984	    -39.13976645	     13.32323254	      2.37411899	     -1.67958731	      5.46261490	     -0.25133546	    -12.09108976	     15.50223545	     -4.93107229	     -4.06998784	     -5.52391759	     -7.17732332
      1.37000000	     -0.97242884	      2.28562035	      2.17171077	     -1.10205620	      1.06663883	     -0.59808961	     14.99970267	     -4.21595615	      0.89187642	    -40.97109125	     12.79862001	      2.60532564	     -1.67107238	      5.58960958	     -0.25936526	    -11.98414088	     15.52370207	     -4.88025141	     -4.29823777	     -5.59076757	     -7.24562190
      1.38000000	     -1.07520477	      2.32936212	      2.19619864	     -1.10122298	      1.06637986	     -0.59880874	     16.20131494	     -4.16572077	      1.07440349	    -42.65113488	     12.36670683	      2.81099031	     -1.67155028	      5.67125675	     -0.26140642	    -11.88236501	     15.56075747	     -4.81303796	     -4.52344819	     -5.61800440	     -7.32180509
      1.39000000	     -1.16302365	      2.35015822	      2.22868875	     -1.10022696	      1.06617687	     -0.59946070	     17.34051445	     -4.06632106	      1.25444734	    -44.15691636	     12.05485724	      2.93193125	     -1.70321377	      5.72209647	     -0.26313034	    -11.76531494	     15.56576877	     -4.73050464	     -4.75644650	     -5.62136348	     -7.40111405
      1.40000000	     -1.27617200	      2.31503850	      2.29150713	     -1.09908816	      1.06595343	     -0.60007737	     18.45481759	     -3.89804143	      1.38621606	    -45.46863804	     11.85589919	      2.99480603	     -1.70248499	      5.70721267	     -0.25813769	    -11.67067451	     15.64060406	     -4.63954274	     -4.95165572	     -5.56271165	     -7.49393685
      1.41000000	     -1.38485197	      2.25369231	      2.37018831	     -1.09777934	      1.06575689	     -0.60065247	     19.50849270	     -3.69376801	      1.48125183	    -46.57356953	     11.77191520	      2.96441885	     -1.71954753	      5.65951995	     -0.24508586	    -11.56662585	     15.71708415	     -4.54157079	     -5.14099878	     -5.47482646	     -7.59590335
      1.42000000	     -1.49520727	      2.16749519	      2.46433967	     -1.09630733	      1.06557205	     -0.60120391	     20.50837158	     -3.46614678	      1.52627172	    -47.46594610	     11.76631536	      2.86036280	     -1.74557787	      5.58220823	     -0.22623143	    -11.45608488	     15.79932395	     -4.44335811	     -5.31868313	     -5.35801885	     -7.70486162
      1.43000000	     -1.60579119	      2.06787608	      2.56989071	     -1.09466833	      1.06539198	     -0.60174366	     21.45457778	     -3.23622338	      1.51920408	    -48.14773244	     11.80897733	      2.70938872	     -1.78276400	      5.48880032	     -0.20425991	    -11.33933483	     15.87994228	     -4.34800046	     -5.48507138	     -5.22346407	     -7.81964239
      1.44000000	     -1.71311830	      1.96036637	      2.67999483	     -1.09286838	      1.06521495	     -0.60227175	     22.34395427	     -3.01772409	      1.45574232	    -48.61764363	     11.87082611	      2.53263428	     -1.83366304	      5.38600714	     -0.17918398	    -11.21898914	     15.95595269	     -4.26134642	     -5.64676809	     -5.07766982	     -7.93550739
      1.45000000	     -1.81547250	      1.85543462	      2.79025501	     -1.09090113	      1.06503507	     -0.60279354	     23.17442322	     -2.82499005	      1.34362704	    -48.88067771	     11.93605421	      2.33775665	     -1.89940153	      5.28540934	     -0.15502813	    -11.09849213	     16.02305452	     -4.18458752	     -5.80387725	     -4.93109081	     -8.05137184
      1.46000000	     -1.91330851	      1.75411317	      2.89605633	     -1.08876431	      1.06484580	     -0.60329642	     23.94415156	     -2.65941940	      1.18480397	    -48.93810326	     11.99414009	      2.12429559	     -1.97769627	      5.18887277	     -0.12169121	    -10.98417395	     16.08017722	     -4.11738845	     -5.95662758	     -4.78802742	     -8.16234817
      1.47000000	     -2.00152261	      1.66160626	      2.99629816	     -1.08645298	      1.06464886	     -0.60378280	     24.64668881	     -2.52663673	      0.98340205	    -48.79755694	     12.03693915	      1.89255575	     -2.07287304	      5.10095077	     -0.08543091	    -10.87923626	     16.12772797	     -4.05630135	     -6.11051398	     -4.65225261	     -8.26859046
      1.48000000	     -2.07976245	      1.57653511	      3.08854479	     -1.08396306	      1.06443790	     -0.60424195	     25.28042190	     -2.42283314	      0.74106233	    -48.46628648	     12.05886842	      1.64312979	     -2.18493127	      5.01943930	     -0.04874734	    -10.78385018	     16.17627280	     -3.99155222	     -6.26555073	     -4.52306925	     -8.36998692
